<?xml version="1.0" encoding="UTF-8" standalone="no"?><!DOCTYPE svg PUBLIC "-//W3C//DTD SVG 1.1//EN" "http://www.w3.org/Graphics/SVG/1.1/DTD/svg11.dtd"><svg width="100%" height="100%" viewBox="0 0 2561 1047" version="1.1" xmlns="http://www.w3.org/2000/svg" xmlns:xlink="http://www.w3.org/1999/xlink" xml:space="preserve" xmlns:serif="http://www.serif.com/" style="fill-rule:evenodd;clip-rule:evenodd;stroke-linecap:round;stroke-linejoin:round;stroke-miterlimit:1.5;"><rect id="Artboard1" x="0" y="0" width="2560.19" height="1046.94" style="fill:none;"/><clipPath id="_clip1"><rect x="0" y="0" width="2560.19" height="1046.94"/></clipPath><g clip-path="url(#_clip1)"><g><g id="FULL-EYES" serif:id="FULL EYES"><rect x="-0.046" y="-0.079" width="2560.24" height="801.111" style="fill:#fff;fill-opacity:0;"/><g><path d="M126.173,98.938l0,264.643c0,68.071 55.176,123.246 123.247,123.246l0.022,0c68.071,0 123.268,-55.175 123.268,-123.246l-0,-0.022c-0,-68.071 -55.197,-123.268 -123.268,-123.268l-197.93,0" style="fill:none;stroke:#58025f;stroke-width:60.76px;"/></g><g><path d="M372.71,363.559l-0,123.268" style="fill:none;stroke:#58025f;stroke-width:60.76px;"/></g><g><ellipse cx="249.17" cy="363.112" rx="39.359" ry="39.358" style="fill:#58025f;"/></g><g><ellipse cx="708.636" cy="363.112" rx="39.359" ry="39.358" style="fill:#58025f;"/></g><g><path d="M831.586,98.938l0,264.643c0,68.071 -55.175,123.246 -123.246,123.246l-0.022,0c-68.071,0 -123.268,-55.175 -123.268,-123.246l-0,-0.022c-0,-68.071 55.197,-123.268 123.268,-123.268l197.93,0" style="fill:none;stroke:#58025f;stroke-width:60.76px;"/></g><g><path d="M585.05,363.559l-0,123.268" style="fill:none;stroke:#58025f;stroke-width:60.76px;"/></g><g><path d="M751.93,619.798l0,-29.618l-31.478,0l0,11.876c0,5.866 -1.716,11.017 -5.007,15.167c-3.434,4.149 -7.87,7.44 -13.736,10.015c-5.723,2.576 -12.162,4.436 -19.459,5.723c-7.44,1.145 -15.023,1.717 -22.893,1.717l-83.702,0c-16.168,0 -30.189,1.717 -41.779,5.294c-11.733,3.577 -21.462,7.727 -29.188,12.448c-7.584,4.865 -13.45,9.444 -17.456,14.022c-4.006,4.579 -6.439,7.727 -7.726,9.73l-1.145,-0c-1.145,-2.003 -3.72,-5.151 -7.726,-9.73c-4.007,-4.578 -9.73,-9.157 -17.456,-14.022c-7.726,-4.721 -17.456,-8.871 -29.189,-12.448c-11.589,-3.577 -25.611,-5.294 -41.779,-5.294l-83.129,0c-7.87,0 -15.596,-0.572 -23.036,-1.717c-7.584,-1.287 -14.022,-3.147 -19.602,-5.723c-5.58,-2.575 -10.016,-5.866 -13.45,-10.015c-3.291,-4.15 -5.008,-9.301 -5.008,-15.167l0,-11.876l-31.477,0l-0,29.618c-0,16.597 6.725,29.475 20.174,38.632c13.45,9.014 31.478,13.592 54.084,13.592l87.851,0c11.876,0 23.466,0.573 34.912,1.86c11.446,1.145 21.748,3.291 30.619,6.439c8.871,3.148 16.025,7.583 21.319,13.163c5.437,5.437 8.013,12.591 8.013,21.319l31.477,0c0,-8.728 2.719,-15.882 8.013,-21.319c5.294,-5.58 12.448,-10.015 21.319,-13.163c9.014,-3.148 19.172,-5.294 30.619,-6.439c11.446,-1.287 23.179,-1.86 35.054,-1.86l87.709,0c22.606,0 40.634,-4.578 54.084,-13.592c13.449,-9.157 20.174,-22.035 20.174,-38.632Z" style="fill:#58025f;fill-rule:nonzero;stroke:#58025f;stroke-width:17.31px;stroke-linecap:butt;stroke-miterlimit:1.41421;"/></g><g><path d="M1144.58,101.07l-0,465.574c-0,34.185 13.579,66.958 37.746,91.136c24.17,24.178 56.95,37.738 91.128,37.738l0.004,-0" style="fill:none;stroke:#58025f;stroke-width:60.77px;"/></g><g><path d="M1648.16,539.778c-0,-85.98 -69.716,-155.688 -155.715,-155.688l-0.004,-0c-85.999,-0 -155.719,69.708 -155.719,155.688l0,0.038c0,85.98 69.72,155.688 155.719,155.688l0.004,-0c85.999,-0 155.715,-69.708 155.715,-155.688l-0,-0.038Z" style="fill:none;stroke:#58025f;stroke-width:60.77px;"/></g><g><path d="M2078.38,539.778c-0,-85.98 -69.716,-155.688 -155.715,-155.688l-0.004,-0c-85.999,-0 -155.719,69.708 -155.719,155.688l0,0.038c0,85.98 69.72,155.688 155.719,155.688l0.004,-0c85.999,-0 155.715,-69.708 155.715,-155.688l-0,-0.038Z" style="fill:none;stroke:#58025f;stroke-width:60.77px;"/></g><g><path d="M2078.43,695.504l0,-594.448" style="fill:none;stroke:#58025f;stroke-width:60.77px;"/></g><g><path d="M2508.69,695.504l0,-155.688l0,155.688" style="fill:none;stroke:#58025f;stroke-width:60.77px;"/></g><g><path d="M2508.69,539.778c-0,-85.98 -69.716,-155.688 -155.715,-155.688l-0.004,-0c-85.999,-0 -155.719,69.708 -155.719,155.688l0,0.038c0,85.98 69.72,155.688 155.719,155.688l0.004,-0c85.999,-0 155.715,-69.708 155.715,-155.688l-0,-0.038Z" style="fill:none;stroke:#58025f;stroke-width:60.77px;"/></g></g></g><text x="27.267px" y="948.149px" style="font-family:'Futura-Medium', 'Futura', sans-serif;font-weight:500;font-size:215.698px;fill:#58025f;">mind-bending sit<tspan x="1612.25px 1731.58px " y="948.149px 948.149px ">e </tspan>boost<tspan x="2335.18px 2454.51px " y="948.149px 948.149px ">er</tspan></text></g></svg>