<?xml version="1.0" encoding="UTF-8" standalone="no"?><!DOCTYPE svg PUBLIC "-//W3C//DTD SVG 1.1//EN" "http://www.w3.org/Graphics/SVG/1.1/DTD/svg11.dtd"><svg width="100%" height="100%" viewBox="0 0 170 74" version="1.1" xmlns="http://www.w3.org/2000/svg" xmlns:xlink="http://www.w3.org/1999/xlink" xml:space="preserve" xmlns:serif="http://www.serif.com/" style="fill-rule:evenodd;clip-rule:evenodd;stroke-linecap:round;stroke-linejoin:round;stroke-miterlimit:1.5;"><rect id="Artboard2" x="0" y="0" width="169.544" height="73.479" style="fill:#fff;"/><path d="M16.984,8.592c0,0 0,8.701 0,15.243c0,3.921 3.179,7.1 7.1,7.1c0,0 0,0 0.001,0c3.921,0 7.099,-3.179 7.099,-7.1c0,0 0,0 0,-0.001c0,-3.921 -3.178,-7.099 -7.099,-7.099c-5.217,0 -11.401,0 -11.401,0" style="fill:none;stroke:#58025f;stroke-width:2.1px;"/><path d="M31.184,23.835l0,7.1" style="fill:none;stroke:#58025f;stroke-width:2.1px;"/><circle cx="24.069" cy="23.808" r="1.21" style="fill:#58025f;stroke:#58025f;stroke-width:2.1px;"/><path d="M57.618,8.592c0,0 0,8.701 0,15.243c0,3.921 -3.179,7.1 -7.1,7.1c0,0 -0.001,0 -0.001,0c-3.921,0 -7.1,-3.179 -7.1,-7.1c0,0 0,0 0,-0.001c0,-3.921 3.179,-7.099 7.1,-7.099c5.217,0 11.401,0 11.401,0" style="fill:none;stroke:#58025f;stroke-width:2.1px;"/><path d="M43.417,23.835l0,7.1" style="fill:none;stroke:#58025f;stroke-width:2.1px;"/><circle cx="50.533" cy="23.808" r="1.21" style="fill:#58025f;stroke:#58025f;stroke-width:2.1px;"/><path d="M53.007,38.596l0,-1.709l-1.811,0l0,0.684c0,0.342 -0.097,0.632 -0.291,0.872c-0.194,0.239 -0.456,0.433 -0.786,0.581c-0.33,0.148 -0.706,0.256 -1.128,0.324c-0.422,0.069 -0.86,0.103 -1.316,0.103l-4.82,0c-0.934,0 -1.737,0.102 -2.409,0.308c-0.673,0.205 -1.231,0.444 -1.675,0.717c-0.445,0.274 -0.781,0.542 -1.009,0.804c-0.228,0.262 -0.376,0.45 -0.444,0.564l-0.068,0c-0.069,-0.114 -0.217,-0.302 -0.445,-0.564c-0.228,-0.262 -0.564,-0.53 -1.008,-0.804c-0.444,-0.273 -1.003,-0.512 -1.675,-0.717c-0.672,-0.206 -1.476,-0.308 -2.41,-0.308l-4.785,0c-0.456,0 -0.9,-0.034 -1.333,-0.103c-0.433,-0.068 -0.809,-0.176 -1.128,-0.324c-0.319,-0.148 -0.576,-0.342 -0.769,-0.581c-0.194,-0.24 -0.291,-0.53 -0.291,-0.872l0,-0.684l-1.812,0l0,1.709c0,0.957 0.388,1.698 1.163,2.222c0.774,0.524 1.811,0.786 3.11,0.786l5.059,0c0.684,0 1.356,0.035 2.017,0.103c0.661,0.068 1.247,0.194 1.76,0.376c0.513,0.182 0.923,0.433 1.231,0.752c0.307,0.319 0.461,0.729 0.461,1.23l1.812,0c0,-0.501 0.154,-0.911 0.461,-1.23c0.308,-0.319 0.718,-0.57 1.231,-0.752c0.512,-0.182 1.099,-0.308 1.76,-0.376c0.661,-0.068 1.333,-0.103 2.017,-0.103l5.059,0c1.299,0 2.335,-0.262 3.11,-0.786c0.775,-0.524 1.162,-1.265 1.162,-2.222Z" style="fill:#58025f;fill-rule:nonzero;"/><path d="M75.642,6.714c0,0 0,18.269 0,29.254c0,2.147 0.853,4.207 2.372,5.726c1.519,1.518 3.578,2.371 5.726,2.371c0,0 0,0 0,0" style="fill:none;stroke:#58025f;stroke-width:2.5px;"/><path d="M107.286,34.281c0,-5.404 -4.38,-9.784 -9.784,-9.784c0,0 0,0 -0.001,0c-5.403,0 -9.783,4.38 -9.783,9.784c0,0 0,0 0,0.001c0,5.403 4.38,9.783 9.783,9.783c0.001,0 0.001,0 0.001,0c5.404,0 9.784,-4.38 9.784,-9.783c0,-0.001 0,-0.001 0,-0.001Z" style="fill:none;stroke:#58025f;stroke-width:2.5px;"/><path d="M156.86,34.281c0,-5.404 -4.38,-9.784 -9.784,-9.784c0,0 0,0 0,0c-5.404,0 -9.784,4.38 -9.784,9.784c0,0 0,0 0,0.001c0,5.403 4.38,9.783 9.784,9.783c0,0 0,0 0,0c5.404,0 9.784,-4.38 9.784,-9.783c0,-0.001 0,-0.001 0,-0.001Z" style="fill:none;stroke:#58025f;stroke-width:2.5px;"/><path d="M132.073,44.065c0,0 0,-4.892 0,-9.784c0,-5.404 -4.38,-9.784 -9.784,-9.784c0,0 0,0 -0.001,0c-5.403,0 -9.783,4.38 -9.783,9.784c0,0 0,0 0,0.001c0,5.403 4.38,9.783 9.783,9.783c0.001,0 0.001,0 0.001,0c2.595,0 5.084,-1.03 6.919,-2.865c1.834,-1.835 2.865,-4.324 2.865,-6.918c0,-11.067 0,-27.568 0,-27.568" style="fill:none;stroke:#58025f;stroke-width:2.5px;"/><path d="M148.136,24.497c0,0 -0.41,0 -1.07,0c-2.592,0 -5.078,1.03 -6.911,2.863c-1.833,1.833 -2.863,4.319 -2.863,6.911c0,0.007 0,0.013 0,0.02c0,2.592 1.03,5.078 2.863,6.911c1.833,1.834 4.319,2.863 6.911,2.863c0.004,0 0.007,0 0.01,0c5.404,0 9.784,-4.38 9.784,-9.783c0,-0.001 0,-0.001 0,-0.001l0,9.784" style="fill:none;stroke:#58025f;stroke-width:2.5px;"/><path d="M12.048,63.542l1.969,-10.057l3.211,7.27l3.326,-7.27l1.769,10.057l-1.448,0l-0.903,-5.647l-2.768,6.077l-2.691,-6.083l-1.005,5.653l-1.46,0Z" style="fill:#58025f;fill-rule:nonzero;stroke:#fff;stroke-width:0.3px;stroke-linecap:butt;stroke-miterlimit:1.41421;"/><path d="M25.407,57.641l0,5.901l-1.363,0l0,-5.901l1.363,0Zm-1.569,-2.454c0,-0.238 0.087,-0.444 0.26,-0.618c0.174,-0.173 0.382,-0.26 0.624,-0.26c0.247,0 0.457,0.087 0.63,0.26c0.174,0.17 0.261,0.378 0.261,0.624c0,0.247 -0.087,0.457 -0.261,0.63c-0.169,0.174 -0.377,0.261 -0.624,0.261c-0.246,0 -0.456,-0.087 -0.63,-0.261c-0.173,-0.173 -0.26,-0.385 -0.26,-0.636Z" style="fill:#58025f;fill-rule:nonzero;stroke:#fff;stroke-width:0.3px;stroke-linecap:butt;stroke-miterlimit:1.41421;"/><path d="M27.134,57.641l1.369,0l0,0.545c0.476,-0.472 1.014,-0.709 1.611,-0.709c0.687,0 1.222,0.216 1.606,0.649c0.331,0.367 0.497,0.967 0.497,1.799l0,3.617l-1.37,0l0,-3.296c0,-0.582 -0.08,-0.983 -0.242,-1.206c-0.157,-0.226 -0.444,-0.339 -0.86,-0.339c-0.453,0 -0.774,0.15 -0.964,0.449c-0.185,0.294 -0.278,0.809 -0.278,1.544l0,2.848l-1.369,0l0,-5.901Z" style="fill:#58025f;fill-rule:nonzero;stroke:#fff;stroke-width:0.3px;stroke-linecap:butt;stroke-miterlimit:1.41421;"/><path d="M38.287,53.309l1.37,0l0,10.233l-1.37,0l0,-0.618c-0.537,0.525 -1.145,0.788 -1.823,0.788c-0.808,0 -1.479,-0.295 -2.012,-0.885c-0.529,-0.602 -0.793,-1.353 -0.793,-2.254c0,-0.88 0.264,-1.615 0.793,-2.205c0.525,-0.594 1.186,-0.891 1.982,-0.891c0.69,0 1.308,0.283 1.853,0.849l0,-5.017Zm-3.235,7.264c0,0.566 0.152,1.026 0.455,1.382c0.311,0.359 0.702,0.539 1.175,0.539c0.505,0 0.913,-0.174 1.224,-0.521c0.311,-0.36 0.466,-0.816 0.466,-1.369c0,-0.554 -0.155,-1.01 -0.466,-1.37c-0.311,-0.351 -0.715,-0.527 -1.212,-0.527c-0.469,0 -0.86,0.178 -1.175,0.533c-0.311,0.36 -0.467,0.804 -0.467,1.333Z" style="fill:#58025f;fill-rule:nonzero;stroke:#fff;stroke-width:0.3px;stroke-linecap:butt;stroke-miterlimit:1.41421;"/><rect x="40.517" y="59.949" width="2.702" height="1.187" style="fill:#58025f;fill-rule:nonzero;stroke:#fff;stroke-width:0.3px;stroke-linecap:butt;stroke-miterlimit:1.41421;"/><path d="M45.443,53.309l0,5.017c0.545,-0.566 1.163,-0.849 1.854,-0.849c0.795,0 1.458,0.297 1.987,0.891c0.529,0.59 0.793,1.325 0.793,2.205c0,0.909 -0.266,1.66 -0.799,2.254c-0.529,0.59 -1.198,0.885 -2.006,0.885c-0.682,0 -1.292,-0.263 -1.829,-0.788l0,0.618l-1.364,0l0,-10.233l1.364,0Zm3.241,7.325c0,-0.566 -0.153,-1.026 -0.46,-1.381c-0.311,-0.364 -0.701,-0.546 -1.17,-0.546c-0.501,0 -0.909,0.176 -1.224,0.527c-0.311,0.348 -0.466,0.8 -0.466,1.357c0,0.574 0.153,1.032 0.46,1.376c0.307,0.351 0.711,0.527 1.212,0.527c0.473,0 0.864,-0.176 1.175,-0.527c0.315,-0.356 0.473,-0.8 0.473,-1.333Z" style="fill:#58025f;fill-rule:nonzero;stroke:#fff;stroke-width:0.3px;stroke-linecap:butt;stroke-miterlimit:1.41421;"/><path d="M56.893,60.913l-4.229,0c0.037,0.484 0.194,0.87 0.473,1.157c0.279,0.282 0.636,0.424 1.072,0.424c0.34,0 0.62,-0.081 0.843,-0.242c0.218,-0.162 0.466,-0.461 0.745,-0.897l1.151,0.642c-0.178,0.303 -0.366,0.562 -0.564,0.779c-0.197,0.216 -0.409,0.393 -0.636,0.533c-0.226,0.139 -0.47,0.241 -0.733,0.306c-0.262,0.064 -0.547,0.097 -0.854,0.097c-0.881,0 -1.587,-0.283 -2.121,-0.849c-0.533,-0.569 -0.799,-1.324 -0.799,-2.265c0,-0.934 0.258,-1.689 0.775,-2.266c0.521,-0.57 1.212,-0.855 2.072,-0.855c0.869,0 1.555,0.277 2.06,0.83c0.501,0.55 0.751,1.311 0.751,2.284l-0.006,0.322Zm-1.399,-1.115c-0.19,-0.727 -0.648,-1.091 -1.375,-1.091c-0.166,0 -0.322,0.025 -0.467,0.076c-0.145,0.05 -0.278,0.123 -0.397,0.218c-0.119,0.095 -0.221,0.209 -0.306,0.342c-0.085,0.134 -0.149,0.285 -0.194,0.455l2.739,0Z" style="fill:#58025f;fill-rule:nonzero;stroke:#fff;stroke-width:0.3px;stroke-linecap:butt;stroke-miterlimit:1.41421;"/><path d="M58.384,57.641l1.369,0l0,0.545c0.477,-0.472 1.014,-0.709 1.612,-0.709c0.686,0 1.221,0.216 1.605,0.649c0.331,0.367 0.497,0.967 0.497,1.799l0,3.617l-1.369,0l0,-3.296c0,-0.582 -0.081,-0.983 -0.243,-1.206c-0.157,-0.226 -0.444,-0.339 -0.86,-0.339c-0.452,0 -0.773,0.15 -0.963,0.449c-0.186,0.294 -0.279,0.809 -0.279,1.544l0,2.848l-1.369,0l0,-5.901Z" style="fill:#58025f;fill-rule:nonzero;stroke:#fff;stroke-width:0.3px;stroke-linecap:butt;stroke-miterlimit:1.41421;"/><path d="M69.538,53.309l1.369,0l0,10.233l-1.369,0l0,-0.618c-0.537,0.525 -1.145,0.788 -1.824,0.788c-0.808,0 -1.478,-0.295 -2.011,-0.885c-0.53,-0.602 -0.794,-1.353 -0.794,-2.254c0,-0.88 0.264,-1.615 0.794,-2.205c0.525,-0.594 1.185,-0.891 1.981,-0.891c0.69,0 1.308,0.283 1.854,0.849l0,-5.017Zm-3.236,7.264c0,0.566 0.152,1.026 0.455,1.382c0.311,0.359 0.703,0.539 1.175,0.539c0.505,0 0.913,-0.174 1.224,-0.521c0.311,-0.36 0.467,-0.816 0.467,-1.369c0,-0.554 -0.156,-1.01 -0.467,-1.37c-0.311,-0.351 -0.715,-0.527 -1.212,-0.527c-0.468,0 -0.86,0.178 -1.175,0.533c-0.311,0.36 -0.467,0.804 -0.467,1.333Z" style="fill:#58025f;fill-rule:nonzero;stroke:#fff;stroke-width:0.3px;stroke-linecap:butt;stroke-miterlimit:1.41421;"/><path d="M73.991,57.641l0,5.901l-1.363,0l0,-5.901l1.363,0Zm-1.569,-2.454c0,-0.238 0.086,-0.444 0.26,-0.618c0.174,-0.173 0.382,-0.26 0.624,-0.26c0.247,0 0.457,0.087 0.63,0.26c0.174,0.17 0.261,0.378 0.261,0.624c0,0.247 -0.087,0.457 -0.261,0.63c-0.169,0.174 -0.377,0.261 -0.624,0.261c-0.246,0 -0.456,-0.087 -0.63,-0.261c-0.174,-0.173 -0.26,-0.385 -0.26,-0.636Z" style="fill:#58025f;fill-rule:nonzero;stroke:#fff;stroke-width:0.3px;stroke-linecap:butt;stroke-miterlimit:1.41421;"/><path d="M75.717,57.641l1.37,0l0,0.545c0.476,-0.472 1.014,-0.709 1.611,-0.709c0.687,0 1.222,0.216 1.606,0.649c0.331,0.367 0.497,0.967 0.497,1.799l0,3.617l-1.37,0l0,-3.296c0,-0.582 -0.08,-0.983 -0.242,-1.206c-0.157,-0.226 -0.444,-0.339 -0.86,-0.339c-0.453,0 -0.774,0.15 -0.964,0.449c-0.185,0.294 -0.278,0.809 -0.278,1.544l0,2.848l-1.37,0l0,-5.901Z" style="fill:#58025f;fill-rule:nonzero;stroke:#fff;stroke-width:0.3px;stroke-linecap:butt;stroke-miterlimit:1.41421;"/><path d="M88.228,63.403c0,0.278 -0.009,0.524 -0.027,0.736c-0.018,0.212 -0.043,0.399 -0.076,0.56c-0.096,0.444 -0.286,0.826 -0.569,1.145c-0.533,0.614 -1.266,0.921 -2.199,0.921c-0.788,0 -1.436,-0.212 -1.945,-0.636c-0.525,-0.436 -0.828,-1.04 -0.909,-1.812l1.369,0c0.053,0.291 0.14,0.515 0.261,0.673c0.283,0.368 0.695,0.551 1.236,0.551c0.997,0 1.496,-0.612 1.496,-1.835l0,-0.824c-0.541,0.553 -1.165,0.83 -1.872,0.83c-0.804,0 -1.462,-0.291 -1.975,-0.873c-0.517,-0.59 -0.775,-1.327 -0.775,-2.211c0,-0.861 0.24,-1.592 0.721,-2.193c0.517,-0.639 1.199,-0.958 2.047,-0.958c0.744,0 1.362,0.277 1.854,0.83l0,-0.666l1.363,0l0,5.762Zm-1.308,-2.799c0,-0.574 -0.154,-1.032 -0.461,-1.376c-0.311,-0.351 -0.708,-0.527 -1.193,-0.527c-0.517,0 -0.925,0.192 -1.224,0.576c-0.271,0.343 -0.406,0.787 -0.406,1.333c0,0.537 0.135,0.977 0.406,1.32c0.295,0.376 0.703,0.564 1.224,0.564c0.521,0 0.933,-0.19 1.236,-0.57c0.278,-0.343 0.418,-0.783 0.418,-1.32Z" style="fill:#58025f;fill-rule:nonzero;stroke:#fff;stroke-width:0.3px;stroke-linecap:butt;stroke-miterlimit:1.41421;"/><path d="M97.207,58.647l-1.127,0.599c-0.177,-0.363 -0.397,-0.545 -0.66,-0.545c-0.125,0 -0.232,0.042 -0.321,0.124c-0.089,0.083 -0.133,0.189 -0.133,0.318c0,0.227 0.262,0.451 0.787,0.673c0.723,0.311 1.21,0.598 1.46,0.86c0.251,0.263 0.376,0.616 0.376,1.061c0,0.569 -0.21,1.046 -0.63,1.429c-0.408,0.364 -0.901,0.546 -1.478,0.546c-0.99,0 -1.691,-0.483 -2.103,-1.448l1.164,-0.54c0.161,0.283 0.284,0.463 0.369,0.54c0.166,0.153 0.364,0.23 0.594,0.23c0.46,0 0.691,-0.21 0.691,-0.63c0,-0.243 -0.178,-0.469 -0.534,-0.679c-0.137,-0.068 -0.274,-0.135 -0.412,-0.2c-0.137,-0.064 -0.276,-0.131 -0.418,-0.2c-0.395,-0.194 -0.674,-0.387 -0.836,-0.581c-0.206,-0.247 -0.309,-0.564 -0.309,-0.951c0,-0.513 0.176,-0.938 0.527,-1.273c0.36,-0.335 0.796,-0.503 1.309,-0.503c0.755,0 1.317,0.39 1.684,1.17Z" style="fill:#58025f;fill-rule:nonzero;stroke:#fff;stroke-width:0.3px;stroke-linecap:butt;stroke-miterlimit:1.41421;"/><path d="M100.176,57.641l0,5.901l-1.363,0l0,-5.901l1.363,0Zm-1.569,-2.454c0,-0.238 0.087,-0.444 0.26,-0.618c0.174,-0.173 0.382,-0.26 0.624,-0.26c0.247,0 0.457,0.087 0.631,0.26c0.173,0.17 0.26,0.378 0.26,0.624c0,0.247 -0.087,0.457 -0.26,0.63c-0.17,0.174 -0.378,0.261 -0.625,0.261c-0.246,0 -0.456,-0.087 -0.63,-0.261c-0.173,-0.173 -0.26,-0.385 -0.26,-0.636Z" style="fill:#58025f;fill-rule:nonzero;stroke:#fff;stroke-width:0.3px;stroke-linecap:butt;stroke-miterlimit:1.41421;"/><path d="M103.308,58.913l0,4.629l-1.363,0l0,-4.629l-0.581,0l0,-1.272l0.581,0l0,-2.163l1.363,0l0,2.163l1.061,0l0,1.272l-1.061,0Z" style="fill:#58025f;fill-rule:nonzero;stroke:#fff;stroke-width:0.3px;stroke-linecap:butt;stroke-miterlimit:1.41421;"/><path d="M110.67,60.913l-4.229,0c0.036,0.484 0.194,0.87 0.472,1.157c0.279,0.282 0.636,0.424 1.073,0.424c0.339,0 0.62,-0.081 0.842,-0.242c0.218,-0.162 0.466,-0.461 0.745,-0.897l1.151,0.642c-0.178,0.303 -0.365,0.562 -0.563,0.779c-0.198,0.216 -0.41,0.393 -0.637,0.533c-0.226,0.139 -0.47,0.241 -0.733,0.306c-0.262,0.064 -0.547,0.097 -0.854,0.097c-0.88,0 -1.587,-0.283 -2.12,-0.849c-0.534,-0.569 -0.8,-1.324 -0.8,-2.265c0,-0.934 0.258,-1.689 0.775,-2.266c0.521,-0.57 1.212,-0.855 2.072,-0.855c0.869,0 1.555,0.277 2.06,0.83c0.501,0.55 0.752,1.311 0.752,2.284l-0.006,0.322Zm-1.4,-1.115c-0.19,-0.727 -0.648,-1.091 -1.375,-1.091c-0.166,0 -0.321,0.025 -0.467,0.076c-0.145,0.05 -0.277,0.123 -0.397,0.218c-0.119,0.095 -0.221,0.209 -0.306,0.342c-0.084,0.134 -0.149,0.285 -0.193,0.455l2.738,0Z" style="fill:#58025f;fill-rule:nonzero;stroke:#fff;stroke-width:0.3px;stroke-linecap:butt;stroke-miterlimit:1.41421;"/><path d="M117.352,53.309l0,5.017c0.545,-0.566 1.163,-0.849 1.854,-0.849c0.796,0 1.458,0.297 1.987,0.891c0.529,0.59 0.794,1.325 0.794,2.205c0,0.909 -0.267,1.66 -0.8,2.254c-0.529,0.59 -1.197,0.885 -2.005,0.885c-0.683,0 -1.293,-0.263 -1.83,-0.788l0,0.618l-1.363,0l0,-10.233l1.363,0Zm3.242,7.325c0,-0.566 -0.154,-1.026 -0.461,-1.381c-0.311,-0.364 -0.701,-0.546 -1.169,-0.546c-0.501,0 -0.909,0.176 -1.224,0.527c-0.311,0.348 -0.467,0.8 -0.467,1.357c0,0.574 0.154,1.032 0.461,1.376c0.307,0.351 0.711,0.527 1.212,0.527c0.472,0 0.864,-0.176 1.175,-0.527c0.315,-0.356 0.473,-0.8 0.473,-1.333Z" style="fill:#58025f;fill-rule:nonzero;stroke:#fff;stroke-width:0.3px;stroke-linecap:butt;stroke-miterlimit:1.41421;"/><path d="M123.15,60.549c0,-0.852 0.305,-1.577 0.915,-2.175c0.61,-0.598 1.353,-0.897 2.23,-0.897c0.88,0 1.627,0.301 2.241,0.903c0.606,0.602 0.909,1.341 0.909,2.218c0,0.884 -0.305,1.625 -0.915,2.223c-0.614,0.594 -1.367,0.891 -2.26,0.891c-0.884,0 -1.625,-0.303 -2.223,-0.909c-0.598,-0.598 -0.897,-1.349 -0.897,-2.254Zm1.394,0.024c0,0.59 0.157,1.056 0.472,1.4c0.323,0.347 0.75,0.521 1.279,0.521c0.533,0 0.959,-0.172 1.278,-0.515c0.319,-0.343 0.479,-0.802 0.479,-1.375c0,-0.574 -0.16,-1.032 -0.479,-1.376c-0.323,-0.347 -0.749,-0.521 -1.278,-0.521c-0.521,0 -0.943,0.174 -1.267,0.521c-0.323,0.348 -0.484,0.796 -0.484,1.345Z" style="fill:#58025f;fill-rule:nonzero;stroke:#fff;stroke-width:0.3px;stroke-linecap:butt;stroke-miterlimit:1.41421;"/><path d="M130.608,60.549c0,-0.852 0.305,-1.577 0.915,-2.175c0.61,-0.598 1.353,-0.897 2.23,-0.897c0.88,0 1.628,0.301 2.242,0.903c0.605,0.602 0.908,1.341 0.908,2.218c0,0.884 -0.305,1.625 -0.915,2.223c-0.613,0.594 -1.367,0.891 -2.259,0.891c-0.885,0 -1.626,-0.303 -2.224,-0.909c-0.598,-0.598 -0.897,-1.349 -0.897,-2.254Zm1.394,0.024c0,0.59 0.157,1.056 0.472,1.4c0.324,0.347 0.75,0.521 1.279,0.521c0.533,0 0.959,-0.172 1.278,-0.515c0.319,-0.343 0.479,-0.802 0.479,-1.375c0,-0.574 -0.16,-1.032 -0.479,-1.376c-0.323,-0.347 -0.749,-0.521 -1.278,-0.521c-0.521,0 -0.943,0.174 -1.266,0.521c-0.324,0.348 -0.485,0.796 -0.485,1.345Z" style="fill:#58025f;fill-rule:nonzero;stroke:#fff;stroke-width:0.3px;stroke-linecap:butt;stroke-miterlimit:1.41421;"/><path d="M141.774,58.647l-1.126,0.599c-0.178,-0.363 -0.398,-0.545 -0.661,-0.545c-0.125,0 -0.232,0.042 -0.321,0.124c-0.089,0.083 -0.133,0.189 -0.133,0.318c0,0.227 0.262,0.451 0.787,0.673c0.723,0.311 1.21,0.598 1.46,0.86c0.251,0.263 0.376,0.616 0.376,1.061c0,0.569 -0.21,1.046 -0.63,1.429c-0.408,0.364 -0.901,0.546 -1.478,0.546c-0.99,0 -1.691,-0.483 -2.103,-1.448l1.164,-0.54c0.161,0.283 0.284,0.463 0.369,0.54c0.166,0.153 0.364,0.23 0.594,0.23c0.46,0 0.691,-0.21 0.691,-0.63c0,-0.243 -0.178,-0.469 -0.534,-0.679c-0.137,-0.068 -0.274,-0.135 -0.412,-0.2c-0.137,-0.064 -0.276,-0.131 -0.418,-0.2c-0.395,-0.194 -0.674,-0.387 -0.836,-0.581c-0.206,-0.247 -0.309,-0.564 -0.309,-0.951c0,-0.513 0.176,-0.938 0.527,-1.273c0.36,-0.335 0.796,-0.503 1.309,-0.503c0.755,0 1.317,0.39 1.684,1.17Z" style="fill:#58025f;fill-rule:nonzero;stroke:#fff;stroke-width:0.3px;stroke-linecap:butt;stroke-miterlimit:1.41421;"/><path d="M144.786,58.913l0,4.629l-1.364,0l0,-4.629l-0.581,0l0,-1.272l0.581,0l0,-2.163l1.364,0l0,2.163l1.06,0l0,1.272l-1.06,0Z" style="fill:#58025f;fill-rule:nonzero;stroke:#fff;stroke-width:0.3px;stroke-linecap:butt;stroke-miterlimit:1.41421;"/><path d="M152.147,60.913l-4.229,0c0.036,0.484 0.194,0.87 0.472,1.157c0.279,0.282 0.637,0.424 1.073,0.424c0.339,0 0.62,-0.081 0.842,-0.242c0.218,-0.162 0.466,-0.461 0.745,-0.897l1.151,0.642c-0.177,0.303 -0.365,0.562 -0.563,0.779c-0.198,0.216 -0.41,0.393 -0.636,0.533c-0.227,0.139 -0.471,0.241 -0.733,0.306c-0.263,0.064 -0.548,0.097 -0.855,0.097c-0.88,0 -1.587,-0.283 -2.12,-0.849c-0.533,-0.569 -0.8,-1.324 -0.8,-2.265c0,-0.934 0.259,-1.689 0.776,-2.266c0.521,-0.57 1.211,-0.855 2.072,-0.855c0.868,0 1.555,0.277 2.06,0.83c0.5,0.55 0.751,1.311 0.751,2.284l-0.006,0.322Zm-1.4,-1.115c-0.19,-0.727 -0.648,-1.091 -1.375,-1.091c-0.166,0 -0.321,0.025 -0.467,0.076c-0.145,0.05 -0.277,0.123 -0.396,0.218c-0.12,0.095 -0.222,0.209 -0.306,0.342c-0.085,0.134 -0.15,0.285 -0.194,0.455l2.738,0Z" style="fill:#58025f;fill-rule:nonzero;stroke:#fff;stroke-width:0.3px;stroke-linecap:butt;stroke-miterlimit:1.41421;"/><path d="M153.637,57.641l1.363,0l0,0.527c0.251,-0.263 0.473,-0.442 0.667,-0.539c0.198,-0.101 0.432,-0.152 0.703,-0.152c0.359,0 0.735,0.117 1.126,0.352l-0.624,1.248c-0.258,-0.186 -0.51,-0.279 -0.757,-0.279c-0.743,0 -1.115,0.562 -1.115,1.684l0,3.06l-1.363,0l0,-5.901Z" style="fill:#58025f;fill-rule:nonzero;stroke:#fff;stroke-width:0.3px;stroke-linecap:butt;stroke-miterlimit:1.41421;"/><path d="M141.985,31.01l0,2.469c0.268,-0.278 0.572,-0.417 0.912,-0.417c0.392,0 0.718,0.146 0.978,0.438c0.261,0.29 0.391,0.652 0.391,1.085c0,0.447 -0.131,0.817 -0.394,1.109c-0.26,0.291 -0.589,0.436 -0.987,0.436c-0.336,0 -0.636,-0.13 -0.9,-0.388l0,0.304l-0.671,0l0,-5.036l0.671,0Zm1.595,3.605c0,-0.278 -0.075,-0.505 -0.227,-0.68c-0.153,-0.179 -0.344,-0.268 -0.575,-0.268c-0.246,0 -0.447,0.086 -0.602,0.259c-0.153,0.171 -0.23,0.394 -0.23,0.668c0,0.282 0.076,0.508 0.227,0.677c0.151,0.173 0.35,0.259 0.596,0.259c0.233,0 0.425,-0.086 0.578,-0.259c0.156,-0.175 0.233,-0.394 0.233,-0.656Z" style="fill:#58025f;fill-rule:nonzero;"/><path d="M147.62,34.752l-2.081,0c0.018,0.239 0.095,0.429 0.233,0.57c0.137,0.139 0.313,0.208 0.527,0.208c0.167,0 0.305,-0.039 0.415,-0.119c0.107,-0.079 0.229,-0.226 0.366,-0.441l0.567,0.316c-0.087,0.149 -0.18,0.277 -0.277,0.383c-0.098,0.106 -0.202,0.194 -0.313,0.262c-0.112,0.069 -0.232,0.119 -0.361,0.151c-0.129,0.032 -0.269,0.048 -0.421,0.048c-0.433,0 -0.781,-0.139 -1.043,-0.418c-0.263,-0.28 -0.394,-0.652 -0.394,-1.115c0,-0.459 0.128,-0.831 0.382,-1.115c0.256,-0.28 0.596,-0.42 1.02,-0.42c0.427,0 0.765,0.136 1.013,0.408c0.247,0.27 0.37,0.645 0.37,1.124l-0.003,0.158Zm-0.689,-0.548c-0.093,-0.358 -0.319,-0.537 -0.676,-0.537c-0.082,0 -0.158,0.012 -0.23,0.037c-0.072,0.025 -0.137,0.061 -0.195,0.107c-0.059,0.047 -0.109,0.103 -0.151,0.169c-0.042,0.066 -0.073,0.14 -0.095,0.224l1.347,0Z" style="fill:#58025f;fill-rule:nonzero;"/><path d="M149.045,33.768l0,2.278l-0.67,0l0,-2.278l-0.287,0l0,-0.626l0.287,0l0,-1.064l0.67,0l0,1.064l0.522,0l0,0.626l-0.522,0Z" style="fill:#58025f;fill-rule:nonzero;"/><path d="M152.164,33.142l0.674,0l0,2.904l-0.674,0l0,-0.304c-0.276,0.258 -0.573,0.388 -0.891,0.388c-0.402,0 -0.734,-0.145 -0.996,-0.436c-0.261,-0.296 -0.391,-0.666 -0.391,-1.109c0,-0.435 0.13,-0.798 0.391,-1.088c0.26,-0.29 0.586,-0.435 0.978,-0.435c0.338,0 0.641,0.139 0.909,0.417l0,-0.337Zm-1.592,1.443c0,0.278 0.074,0.505 0.224,0.68c0.153,0.177 0.345,0.265 0.578,0.265c0.248,0 0.449,-0.085 0.602,-0.256c0.153,-0.177 0.23,-0.402 0.23,-0.674c0,-0.272 -0.077,-0.497 -0.23,-0.674c-0.153,-0.173 -0.352,-0.259 -0.596,-0.259c-0.231,0 -0.423,0.087 -0.578,0.262c-0.154,0.177 -0.23,0.396 -0.23,0.656Z" style="fill:#58025f;fill-rule:nonzero;"/></svg>
